Coordinates
version=1
nRows=13
nColumns=63
inDegrees=yes

Units are S.I. units (second, meters, Newtons, ...)
If the header above contains a line with 'inDegrees', this indicates whether rotational values are in degrees (yes) or radians (no).

endheader
time	pelvis_tilt	pelvis_list	pelvis_rotation	pelvis_tx	pelvis_ty	pelvis_tz	hip_flexion_r	hip_adduction_r	hip_rotation_r	knee_angle_r	knee_angle_r_beta	ankle_angle_r	subtalar_angle_r	mtp_angle_r	hip_flexion_l	hip_adduction_l	hip_rotation_l	knee_angle_l	knee_angle_l_beta	ankle_angle_l	subtalar_angle_l	mtp_angle_l	L5_S1_Flex_Ext	L5_S1_Lat_Bending	L5_S1_axial_rotation	L4_L5_Flex_Ext	L4_L5_Lat_Bending	L4_L5_axial_rotation	L3_L4_Flex_Ext	L3_L4_Lat_Bending	L3_L4_axial_rotation	L2_L3_Flex_Ext	L2_L3_Lat_Bending	L2_L3_axial_rotation	L1_L2_Flex_Ext	L1_L2_Lat_Bending	L1_L2_axial_rotation	L1_T12_Flex_Ext	L1_T12_Lat_Bending	L1_T12_axial_rotation	Abs_r3	Abs_r2	Abs_r1	Abs_t1	Abs_t2	neck_flexion	neck_bending	neck_rotation	arm_flex_r	arm_add_r	arm_rot_r	elbow_flex_r	pro_sup_r	wrist_flex_r	wrist_dev_r	arm_flex_l	arm_add_l	arm_rot_l	elbow_flex_l	pro_sup_l	wrist_flex_l	wrist_dev_l
4.050000	1.206243	6.759826	92.227487	0.118150	0.853347	0.492850	-4.394178	-1.066399	-10.573203	15.626839	0.272740	34.167419	8.883635	0.000000	-7.526968	-0.731045	22.926910	4.709675	0.082199	19.878243	-16.645208	0.000000	-0.098614	0.758788	-0.373432	-0.183137	1.009188	-0.396772	-0.162014	1.844917	-0.396772	-0.112707	1.844917	-0.326753	-0.091573	1.547320	-0.303414	-0.056348	1.175362	-0.280074	-0.704393	8.583559	-2.076919	0.000000	0.000000	21.794315	0.141840	16.150254	6.205744	-18.461143	159.573517	0.631908	3.914681	-7.856827	-13.207080	9.777453	-9.433133	152.817701	0.924812	9.497534	-5.039849	-13.887389
4.066667	1.284231	6.962694	91.945831	0.118299	0.853740	0.492650	-4.464961	-0.957643	-9.934340	15.663427	0.273378	34.172650	8.347602	0.000000	-7.701450	-0.765075	22.322987	4.782063	0.083463	20.033290	-16.596475	0.000000	-0.095508	0.771546	-0.307330	-0.177368	1.026156	-0.326538	-0.156910	1.875937	-0.326538	-0.109156	1.875937	-0.268914	-0.088689	1.573337	-0.249706	-0.054573	1.195125	-0.230498	-0.682204	8.727883	-1.709279	0.000000	0.000000	21.367014	-0.119065	16.249060	6.315242	-18.937324	159.301923	0.422960	3.907103	-8.679693	-13.437189	10.241738	-10.107405	154.513132	1.001138	10.873364	-5.554091	-12.599705
4.083333	1.370540	7.146703	91.660587	0.118442	0.854143	0.492579	-4.501296	-0.834834	-9.236284	15.676354	0.273604	34.209835	7.747384	0.000000	-7.852151	-0.805836	21.800690	4.810488	0.083959	20.230896	-16.589712	0.000000	-0.092126	0.786410	-0.231070	-0.171087	1.045925	-0.245512	-0.151353	1.912077	-0.245512	-0.105290	1.912077	-0.202187	-0.085548	1.603647	-0.187745	-0.052641	1.218149	-0.173303	-0.658045	8.896026	-1.285144	0.000000	0.000000	21.034225	-0.462923	16.394637	6.388558	-19.446613	157.976158	0.334511	3.831620	-9.115185	-13.684254	10.774331	-10.750397	156.243044	1.205607	11.850013	-6.234300	-11.253282
4.100000	1.457755	7.354785	91.374955	0.118555	0.854614	0.492569	-4.554688	-0.716945	-8.568319	15.673362	0.273552	34.303431	7.204860	0.000000	-8.036522	-0.849020	21.330221	4.776703	0.083369	20.523805	-16.536494	0.000000	-0.092320	0.802701	-0.140728	-0.171448	1.067592	-0.149524	-0.151673	1.951687	-0.149524	-0.105513	1.951687	-0.123137	-0.085729	1.636868	-0.114342	-0.052752	1.243384	-0.105546	-0.659436	9.080314	-0.782689	0.000000	0.000000	20.758385	-0.916665	16.524925	6.394578	-19.971800	155.632330	0.370767	3.694894	-9.260056	-13.920164	11.376871	-11.353894	157.413216	1.603167	12.645172	-7.037475	-9.750489
4.116667	1.506116	7.588311	91.123815	0.118747	0.855178	0.492639	-4.612801	-0.632328	-7.930599	15.689327	0.273830	34.471001	6.690016	0.000000	-8.240265	-0.867941	20.942150	4.704958	0.082117	20.910125	-16.418786	0.000000	-0.095596	0.812926	-0.042962	-0.177531	1.081192	-0.045647	-0.157054	1.976549	-0.045647	-0.109256	1.976549	-0.037592	-0.088770	1.657720	-0.034907	-0.054623	1.259223	-0.032221	-0.682830	9.195986	-0.238942	0.000000	0.000000	20.517282	-1.422633	16.626968	6.877070	-20.236706	158.285931	-0.819609	0.126563	-8.833828	-14.822503	12.016064	-11.939119	158.047424	2.086980	13.322004	-7.808916	-8.178653
4.133333	1.598692	7.855718	90.862890	0.118780	0.855768	0.492690	-4.692245	-0.527591	-7.361401	15.726263	0.274475	34.718267	6.303396	0.000000	-8.486949	-0.919522	20.597003	4.598583	0.080260	21.422793	-16.253522	0.000000	-0.102830	0.832301	0.071395	-0.190965	1.106961	0.075857	-0.168939	2.023657	0.075857	-0.117524	2.023657	0.062471	-0.095488	1.697229	0.058008	-0.058757	1.289235	0.053546	-0.734502	9.415159	0.397077	0.000000	0.000000	20.335015	-2.040639	16.799914	6.927562	-20.634858	157.017128	-1.221277	-1.382900	-8.133943	-15.237691	12.667708	-12.396557	158.100498	2.654395	13.839271	-8.555204	-6.632525
4.150000	1.733955	8.153843	90.593450	0.118652	0.856369	0.492657	-4.795460	-0.409053	-6.888973	15.791676	0.275617	35.056156	6.085363	0.000000	-8.777440	-1.002252	20.304376	4.468682	0.077993	22.048981	-16.052093	0.000000	-0.112339	0.859874	0.198167	-0.208625	1.143633	0.210552	-0.184562	2.090698	0.210552	-0.128393	2.090698	0.173396	-0.104318	1.753456	0.161011	-0.064191	1.331945	0.148625	-0.802429	9.727070	1.102144	0.000000	0.000000	20.200050	-2.729045	17.039953	6.616376	-21.164999	152.700044	-0.972603	-1.381172	-7.203604	-15.289358	13.283573	-12.718646	157.641495	3.244656	14.156307	-9.194752	-5.215875
4.166667	1.890187	8.485877	90.333381	0.118369	0.856965	0.492497	-4.935144	-0.296576	-6.541283	15.884010	0.277228	35.490682	6.051215	0.000000	-9.114871	-1.097853	20.054456	4.326605	0.075514	22.751444	-15.816075	0.000000	-0.123759	0.891770	0.331455	-0.229833	1.186054	0.352171	-0.203324	2.168250	0.352171	-0.141444	2.168250	0.290024	-0.114923	1.818497	0.269308	-0.070716	1.381352	0.248592	-0.883999	10.087880	1.843456	0.000000	0.000000	20.091414	-3.453647	17.295207	6.000722	-21.790190	145.958051	-0.181630	-0.076643	-6.115586	-15.019131	13.829348	-12.920801	156.741633	3.814188	14.284960	-9.677036	-4.052912
4.183333	2.059244	8.868438	90.086383	0.117974	0.857566	0.492166	-5.139538	-0.196162	-6.327420	15.998857	0.279233	36.009740	6.207889	0.000000	-9.513601	-1.197977	19.833582	4.197589	0.073262	23.512006	-15.560276	0.000000	-0.138716	0.924904	0.465458	-0.257609	1.230123	0.494549	-0.227896	2.248812	0.494549	-0.158538	2.248812	0.407276	-0.128811	1.886065	0.378184	-0.079262	1.432677	0.349093	-0.990832	10.462703	2.588737	0.000000	0.000000	19.947439	-4.148294	17.499602	5.155136	-22.459549	137.426206	1.036349	2.366154	-5.042677	-14.455447	14.256515	-13.018300	155.467437	4.301514	14.193962	-9.981401	-3.207296
4.200000	2.285625	9.259135	89.797259	0.117361	0.858095	0.491598	-5.364877	-0.073926	-6.141518	16.141307	0.281719	36.564475	6.470887	0.000000	-9.950558	-1.321277	19.712320	4.062609	0.070906	24.242234	-15.497044	0.000000	-0.152609	0.967503	0.607621	-0.283410	1.286779	0.645597	-0.250722	2.352386	0.645597	-0.174417	2.352386	0.531668	-0.141713	1.972932	0.493692	-0.087201	1.498662	0.455715	-1.090072	10.944584	3.379403	0.000000	0.000000	19.853246	-4.886424	17.706618	3.627698	-23.297034	123.431010	3.351382	8.814949	-4.393948	-13.091034	14.548728	-12.960096	153.757279	4.748906	14.123994	-10.308948	-2.647768
4.216667	2.478187	9.675641	89.565610	0.116675	0.858605	0.490856	-5.647060	0.000875	-6.111212	16.305004	0.284576	37.147161	6.886845	0.000000	-10.411069	-1.414376	19.544174	3.966733	0.069233	24.968541	-15.347364	0.000000	-0.167986	1.003289	0.728072	-0.311967	1.334374	0.773576	-0.275984	2.439397	0.773576	-0.191991	2.439397	0.637063	-0.155992	2.045907	0.591558	-0.095987	1.554095	0.546054	-1.199907	11.349406	4.049317	0.000000	0.000000	19.735161	-5.518427	17.809098	2.276881	-24.053080	110.986143	5.512586	14.508805	-3.857025	-11.756475	14.658756	-12.854617	152.018009	5.060135	13.690278	-10.477038	-2.439571
4.233333	2.621217	10.114318	89.400685	0.115908	0.859093	0.489958	-5.991226	0.012722	-6.247722	16.485056	0.287719	37.715992	7.443605	0.000000	-10.887539	-1.461527	19.336387	3.917047	0.068365	25.685739	-15.114701	0.000000	-0.184829	1.030420	0.824722	-0.343247	1.370458	0.876267	-0.303656	2.505362	0.876267	-0.211242	2.505362	0.721632	-0.171633	2.101232	0.670086	-0.105612	1.596120	0.618541	-1.320219	11.656313	4.586855	0.000000	0.000000	19.581100	-6.024739	17.783626	1.104650	-24.722682	100.071007	7.507276	19.433487	-3.460829	-10.454431	14.593071	-12.711147	150.341826	5.225438	13.035186	-10.431885	-2.512249
4.250000	2.712393	10.570136	89.294393	0.115101	0.859563	0.488926	-6.399156	-0.034671	-6.504024	16.666900	0.290892	38.234577	8.095469	0.000000	-11.374364	-1.461234	19.094236	3.914447	0.068320	26.384939	-14.816744	0.000000	-0.202399	1.048517	0.898397	-0.375876	1.394528	0.954547	-0.332522	2.549365	0.954547	-0.231322	2.549365	0.786097	-0.187948	2.138137	0.729948	-0.115651	1.624153	0.673798	-1.445719	11.861038	4.996615	0.000000	0.000000	19.372185	-6.373998	17.651775	0.111851	-25.297932	90.753190	9.314944	23.544222	-3.242988	-9.189032	14.379881	-12.537101	148.986019	5.270098	12.350142	-10.261230	-2.749026
